<svg width="90" height="90" viewBox="0 0 90 90" fill="none" xmlns="http://www.w3.org/2000/svg">
<path fill-rule="evenodd" clip-rule="evenodd" d="M31.1989 76.387L22.0739 62.047C20.9216 60.2345 20.8512 57.9337 21.8943 56.0548L43.9763 16.3048C44.1833 15.9337 44.5739 15.7032 44.9997 15.7032C45.4254 15.7032 45.82 15.9337 46.0231 16.3048L68.1051 56.0548C69.1481 57.9337 69.0816 60.2345 67.9254 62.047L58.8004 76.387L62.4918 86.2308C62.8043 87.0706 62.6871 88.012 62.1793 88.7464C61.6715 89.4847 60.8277 89.9222 59.9332 89.9222H30.0662C29.1677 89.9222 28.3318 89.4847 27.8201 88.7464C27.3083 88.0081 27.1912 87.0667 27.5076 86.2308L31.1989 76.387ZM56.8549 75.0784L65.9487 60.7894C66.6402 59.7035 66.6831 58.3206 66.0542 57.1956C66.0542 57.1956 50.5972 29.3716 46.1672 21.3986V47.0466C49.7063 47.6091 52.4172 50.6794 52.4172 54.3747C52.4172 58.4724 49.093 61.7966 44.9953 61.7966C40.8976 61.7966 37.5734 58.4724 37.5734 54.3747C37.5734 50.6794 40.2843 47.6091 43.8234 47.0466V21.3986L23.9364 57.1956C23.3114 58.3245 23.3505 59.7034 24.0458 60.7894L33.1396 75.0784H56.8549ZM33.3119 77.4222L29.7025 87.0511C29.6557 87.1722 29.6752 87.305 29.7455 87.4105C29.8197 87.516 29.9408 87.5785 30.0658 87.5785H59.9328C60.0617 87.5785 60.1828 87.516 60.2531 87.4105C60.3234 87.305 60.343 87.1722 60.2961 87.0511L56.6867 77.4222H33.3119ZM44.9999 49.2972C42.1952 49.2972 39.9218 51.5706 39.9218 54.3753C39.9218 57.18 42.1952 59.4534 44.9999 59.4534C47.8046 59.4534 50.078 57.18 50.078 54.3753C50.078 51.5706 47.8046 49.2972 44.9999 49.2972ZM8.50795 7.10921C8.00014 8.91391 6.33995 10.2342 4.37515 10.2342C2.00405 10.2342 0.0782471 8.30841 0.0782471 5.93731C0.0782471 3.56621 2.00405 1.64041 4.37515 1.64041C6.33995 1.64041 8.00015 2.96071 8.50795 4.76541H39.1409V2.81231C39.1409 2.08575 39.43 1.39041 39.9417 0.878706C40.4534 0.363086 41.1487 0.0779266 41.8753 0.0779266H48.1253C48.8519 0.0779266 49.5472 0.366986 50.0589 0.878706C50.5706 1.39043 50.8597 2.08571 50.8597 2.81231V4.76541H81.4927C82.0044 2.96071 83.6607 1.64041 85.6255 1.64041C87.9966 1.64041 89.9224 3.56621 89.9224 5.93731C89.9224 8.30841 87.9966 10.2342 85.6255 10.2342C83.6607 10.2342 82.0005 8.91391 81.4927 7.10921H58.5547C72.3477 12.0506 82.6677 24.3122 84.8207 39.2072C86.8324 39.5666 88.3598 41.3244 88.3598 43.4377C88.3598 45.8088 86.434 47.7346 84.0629 47.7346C81.6918 47.7346 79.766 45.8088 79.766 43.4377C79.766 41.6252 80.8949 40.0705 82.4848 39.4416C80.0746 23.0746 67.1838 10.0976 50.8598 7.56261V9.06261C50.8598 9.78917 50.5707 10.4845 50.059 10.9962C49.5434 11.5118 48.8481 11.797 48.1254 11.797H41.8754C41.1489 11.797 40.4535 11.5079 39.9418 10.9962C39.4301 10.4845 39.141 9.78921 39.141 9.06261V7.56261C22.817 10.1017 9.92605 23.0746 7.51605 39.4416C9.10585 40.0705 10.2348 41.6252 10.2348 43.4377C10.2348 45.8088 8.30905 47.7346 5.93795 47.7346C3.56685 47.7346 1.64105 45.8088 1.64105 43.4377C1.64105 41.3244 3.17225 39.5666 5.18015 39.2072C7.33245 24.3122 17.6531 12.0512 31.4461 7.10921H8.50795ZM6.32825 5.93731C6.32825 4.85921 5.45325 3.98421 4.37515 3.98421C3.29705 3.98421 2.42205 4.85921 2.42205 5.93731C2.42205 7.01541 3.29705 7.89041 4.37515 7.89041C5.45325 7.89041 6.32825 7.01541 6.32825 5.93731ZM83.6722 5.93731C83.6722 7.01541 84.5472 7.89041 85.6253 7.89041C86.7034 7.89041 87.5784 7.01541 87.5784 5.93731C87.5784 4.85921 86.7034 3.98421 85.6253 3.98421C84.5472 3.98421 83.6722 4.85921 83.6722 5.93731ZM48.1252 2.42171H41.8752C41.7737 2.42171 41.6721 2.46077 41.5979 2.53499C41.5237 2.60921 41.4846 2.70687 41.4846 2.81233V9.06233C41.4846 9.16389 41.5237 9.26545 41.5979 9.33967C41.6721 9.41388 41.7698 9.45295 41.8752 9.45295H48.1252C48.2268 9.45295 48.3284 9.41388 48.4026 9.33967C48.4768 9.26545 48.5159 9.16779 48.5159 9.06233V2.81233C48.5159 2.71077 48.4768 2.60921 48.4026 2.53499C48.3284 2.46077 48.2307 2.42171 48.1252 2.42171ZM84.0632 41.4837C82.9851 41.4837 82.1101 42.3587 82.1101 43.4368C82.1101 44.5149 82.9851 45.3899 84.0632 45.3899C85.1413 45.3899 86.0163 44.5149 86.0163 43.4368C86.0163 42.3587 85.1413 41.4837 84.0632 41.4837ZM5.93825 41.4837C4.86015 41.4837 3.98515 42.3587 3.98515 43.4368C3.98515 44.5149 4.86015 45.3899 5.93825 45.3899C7.01635 45.3899 7.89135 44.5149 7.89135 43.4368C7.89135 42.3587 7.01635 41.4837 5.93825 41.4837Z" fill="#4EAAFF"/>
</svg>
